<svg width="10" height="11" viewBox="0 0 10 11" fill="none" xmlns="http://www.w3.org/2000/svg">
<path d="M5.3902 8.71012L9.84025 4.25999C9.94325 4.15707 10 4.01967 10 3.87317C10 3.72667 9.94325 3.58927 9.84025 3.48634L9.51261 3.15862C9.29911 2.94537 8.95212 2.94537 8.73895 3.15862L5.00207 6.8955L1.26105 3.15448C1.15804 3.05155 1.02072 2.99472 0.874302 2.99472C0.727718 2.99472 0.590402 3.05155 0.487313 3.15448L0.159755 3.4822C0.0567474 3.5852 9.53674e-07 3.72252 9.53674e-07 3.86902C9.53674e-07 4.01553 0.0567474 4.15292 0.159755 4.25585L4.61387 8.71012C4.7172 8.81329 4.85516 8.86996 5.00183 8.86963C5.14906 8.86996 5.28695 8.81329 5.3902 8.71012Z" fill="white"/>
</svg>
