<svg width="14" height="10" viewBox="0 0 14 10" fill="none" xmlns="http://www.w3.org/2000/svg">
<path d="M13.822 7.56124C13.915 7.65425 13.9615 7.76121 13.9615 7.88212C13.9615 8.00302 13.915 8.10998 13.822 8.20299L13.1245 8.90053C13.0314 8.99354 12.9245 9.04004 12.8036 9.04004C12.6827 9.04004 12.5757 8.99354 12.4827 8.90053L7.00001 3.41783L1.51731 8.90053C1.4243 8.99354 1.31734 9.04004 1.19644 9.04004C1.07553 9.04004 0.968573 8.99354 0.875567 8.90053L0.178022 8.20299C0.0850162 8.10998 0.0385132 8.00302 0.0385132 7.88212C0.0385132 7.76121 0.0850162 7.65425 0.178022 7.56124L6.67914 1.06013C6.77214 0.967123 6.8791 0.92062 7.00001 0.92062C7.12092 0.92062 7.22787 0.967123 7.32088 1.06013L13.822 7.56124Z" fill="white"/>
</svg>
