<svg width="24" height="24" viewBox="0 0 24 24" fill="none" xmlns="http://www.w3.org/2000/svg">
<g clip-path="url(#clip0_3001_9242)">
<path d="M5.94623 23.1034H17.7381C19.8077 23.1034 21.4913 21.4198 21.4913 19.3502V8.13064C21.4913 7.76464 21.1918 7.46518 20.8258 7.46518H16.8331V6.467C16.8331 3.71534 14.5938 1.47607 11.8422 1.47607C9.09051 1.47607 6.85125 3.71534 6.85125 6.467V7.46518H2.85851C2.49251 7.46518 2.19305 7.76464 2.19305 8.13064V19.3502C2.19305 21.4198 3.87666 23.1034 5.94623 23.1034ZM8.18217 6.467C8.18217 4.44734 9.82252 2.80699 11.8422 2.80699C13.8618 2.80699 15.5022 4.44734 15.5022 6.467V7.46518H8.18217V6.467ZM3.52397 8.7961H6.85125V10.4597C6.85125 10.8257 7.15071 11.1252 7.51671 11.1252C7.88271 11.1252 8.18217 10.8257 8.18217 10.4597V8.7961H15.5022V10.4597C15.5022 10.8257 15.8016 11.1252 16.1676 11.1252C16.5336 11.1252 16.8331 10.8257 16.8331 10.4597V8.7961H20.1604V19.3502C20.1604 20.6845 19.0724 21.7725 17.7381 21.7725H5.94623C4.61199 21.7725 3.52397 20.6845 3.52397 19.3502V8.7961Z" fill="#555555"/>
</g>
<defs>
<clipPath id="clip0_3001_9242">
<rect width="23.1579" height="23.1579" fill="white" transform="translate(0.263184 0.511139)"/>
</clipPath>
</defs>
</svg>
