<svg width="24" height="24" viewBox="0 0 24 24" fill="none" xmlns="http://www.w3.org/2000/svg">
<g clip-path="url(#clip0_3001_9236)">
<path d="M11.7073 11.6664C13.2397 11.6664 14.5666 11.1167 15.6511 10.0322C16.7352 8.94797 17.285 7.62128 17.285 6.08861C17.285 4.55639 16.7354 3.22956 15.6509 2.1449C14.5664 1.06078 13.2396 0.511139 11.7073 0.511139C10.1745 0.511139 8.8478 1.06078 7.76354 2.14508C6.67928 3.22938 6.12942 4.55625 6.12942 6.08861C6.12942 7.62128 6.67924 8.94815 7.76359 10.0325C8.84821 11.1166 10.1751 11.6664 11.7072 11.6664H11.7073ZM8.72328 3.10464C9.55524 2.27263 10.5313 1.86822 11.7073 1.86822C12.8831 1.86822 13.8592 2.27263 14.6914 3.10464C15.5234 3.93678 15.9279 4.91294 15.9279 6.08856C15.9279 7.26455 15.5234 8.24057 14.6914 9.07271C13.8592 9.9049 12.8831 10.3093 11.7073 10.3093C10.5316 10.3093 9.55565 9.90472 8.72328 9.07271C7.89109 8.24075 7.48651 7.26459 7.48651 6.08861C7.48651 4.91294 7.89109 3.93678 8.72328 3.10464ZM21.4669 18.3184C21.4356 17.8672 21.3724 17.3749 21.2792 16.8552C21.1852 16.3314 21.0642 15.8364 20.9193 15.3839C20.7695 14.9162 20.5662 14.4544 20.3144 14.0118C20.0534 13.5524 19.7467 13.1524 19.4025 12.8233C19.0426 12.479 18.602 12.2021 18.0924 12.0001C17.5847 11.7993 17.0219 11.6975 16.42 11.6975C16.1836 11.6975 15.955 11.7945 15.5135 12.082C15.1996 12.2863 14.8848 12.4893 14.5691 12.6908C14.2657 12.8841 13.8548 13.0652 13.3472 13.2291C12.8519 13.3894 12.3491 13.4707 11.8526 13.4707C11.3565 13.4707 10.8537 13.3894 10.3581 13.2291C9.85105 13.0653 9.43991 12.8843 9.13705 12.6909C8.78561 12.4664 8.46764 12.2614 8.19183 12.0817C7.75065 11.7943 7.52201 11.6973 7.28564 11.6973C6.68349 11.6973 6.12096 11.7992 5.61334 12.0003C5.10414 12.2019 4.66333 12.4788 4.30307 12.8235C3.95891 13.1528 3.65221 13.5526 3.39141 14.0118C3.14002 14.4544 2.93649 14.916 2.78664 15.3841C2.6419 15.8366 2.52091 16.3314 2.42692 16.8552C2.33361 17.3742 2.27056 17.8666 2.23926 18.3189C2.20851 18.7612 2.19299 19.2214 2.19299 19.6864C2.19299 20.8953 2.57727 21.8739 3.33505 22.5956C4.08348 23.3079 5.07361 23.669 6.278 23.669H17.4287C18.6327 23.669 19.6228 23.3079 20.3715 22.5957C21.1294 21.8744 21.5137 20.8955 21.5137 19.6862C21.5135 19.2197 21.4978 18.7594 21.4669 18.3184ZM19.4358 21.6124C18.9412 22.0831 18.2847 22.3119 17.4285 22.3119H6.27805C5.4217 22.3119 4.76514 22.0831 4.27078 21.6126C3.78582 21.1509 3.55012 20.5207 3.55012 19.6864C3.55012 19.2525 3.56442 18.8241 3.59309 18.4127C3.62095 18.0092 3.67804 17.5659 3.76271 17.0949C3.84625 16.6297 3.95258 16.1931 4.07909 15.7979C4.20049 15.4189 4.36603 15.0436 4.57133 14.6822C4.76727 14.3376 4.9927 14.042 5.24146 13.8039C5.47417 13.5811 5.76749 13.3988 6.11305 13.262C6.43264 13.1355 6.79186 13.0662 7.18179 13.0558C7.22928 13.0811 7.31395 13.1293 7.45105 13.2187C7.73003 13.4005 8.05157 13.6079 8.40708 13.835C8.80782 14.0905 9.32403 14.3212 9.94083 14.5203C10.5714 14.7242 11.2145 14.8277 11.8528 14.8277C12.4912 14.8277 13.1345 14.7242 13.7647 14.5205C14.382 14.321 14.8981 14.0905 15.2994 13.8346C15.6632 13.6021 15.9757 13.4007 16.2546 13.2187C16.3918 13.1295 16.4764 13.0811 16.5239 13.0558C16.9141 13.0662 17.2732 13.1355 17.593 13.262C17.9384 13.3988 18.2317 13.5813 18.4644 13.8038C18.7132 14.0418 18.9386 14.3375 19.1345 14.6823C19.34 15.0436 19.5058 15.4191 19.627 15.7977C19.7537 16.1935 19.8602 16.6299 19.9436 17.0947C20.028 17.5666 20.0853 18.0101 20.1132 18.4129V18.4133C20.142 18.823 20.1565 19.2513 20.1567 19.6864C20.1565 20.5209 19.9208 21.151 19.4358 21.6124H19.4358Z" fill="#555555"/>
</g>
<defs>
<clipPath id="clip0_3001_9236">
<rect width="23.1579" height="23.1579" fill="white" transform="translate(0.263184 0.511139)"/>
</clipPath>
</defs>
</svg>
