<svg width="12" height="9" viewBox="0 0 12 9" fill="none" xmlns="http://www.w3.org/2000/svg">
<path d="M9.24967 5.04165H2.74967C2.42467 5.04165 2.20801 4.82498 2.20801 4.49998C2.20801 4.17498 2.42467 3.95831 2.74967 3.95831H9.24967C9.57467 3.95831 9.79134 4.17498 9.79134 4.49998C9.79134 4.82498 9.57467 5.04165 9.24967 5.04165ZM7.62467 8.29165H4.37467C4.04967 8.29165 3.83301 8.07498 3.83301 7.74998C3.83301 7.42498 4.04967 7.20831 4.37467 7.20831H7.62467C7.94967 7.20831 8.16634 7.42498 8.16634 7.74998C8.16634 8.07498 7.94967 8.29165 7.62467 8.29165ZM10.8747 1.79165H1.12467C0.799674 1.79165 0.583008 1.57498 0.583008 1.24998C0.583008 0.92498 0.799674 0.708313 1.12467 0.708313H10.8747C11.1997 0.708313 11.4163 0.92498 11.4163 1.24998C11.4163 1.57498 11.1997 1.79165 10.8747 1.79165Z" fill="#777777"/>
</svg>
