<svg width="10" height="10" viewBox="0 0 10 10" fill="none" xmlns="http://www.w3.org/2000/svg">
<g clip-path="url(#clip0_31_127)">
<path d="M1.52742 4.6299C1.35484 4.63038 1.18591 4.67972 1.0402 4.7722C0.894482 4.86468 0.777928 4.99653 0.704019 5.15249C0.63011 5.30845 0.601868 5.48215 0.62256 5.6535C0.643252 5.82484 0.712032 5.98682 0.820944 6.1207L3.14267 8.96482C3.22546 9.06761 3.33157 9.14916 3.4522 9.20271C3.57283 9.25625 3.70449 9.28024 3.83625 9.27269C4.11806 9.25755 4.37248 9.1068 4.53469 8.85894L9.35752 1.09178C9.35832 1.09048 9.35914 1.0892 9.35998 1.08794C9.40523 1.01845 9.39056 0.880762 9.29716 0.794262C9.2715 0.770508 9.24125 0.752259 9.20827 0.740637C9.17529 0.729016 9.14028 0.724269 9.1054 0.726688C9.07052 0.729108 9.0365 0.738643 9.00544 0.754706C8.97438 0.770769 8.94694 0.79302 8.92481 0.820089C8.92308 0.822218 8.9213 0.824314 8.91946 0.826378L4.05558 6.32184C4.03707 6.34275 4.01459 6.35978 3.98945 6.37193C3.96431 6.38408 3.937 6.39112 3.90911 6.39262C3.88123 6.39413 3.85332 6.39008 3.82701 6.38072C3.80071 6.37135 3.77652 6.35685 3.75587 6.33805L2.14164 4.86909C1.97398 4.7154 1.75486 4.63007 1.52742 4.6299Z" fill="white"/>
</g>
<defs>
<clipPath id="clip0_31_127">
<rect width="10" height="10" fill="white"/>
</clipPath>
</defs>
</svg>
