<svg width="16" height="16" viewBox="0 0 16 16" fill="none" xmlns="http://www.w3.org/2000/svg">
<g clip-path="url(#clip0_869_14976)">
<path d="M0.781152 16C0.626614 16 0.475539 15.9542 0.347036 15.8683C0.218534 15.7825 0.118376 15.6605 0.0592335 15.5177C9.05208e-05 15.3749 -0.0153811 15.2178 0.0147757 15.0662C0.0449324 14.9147 0.119363 14.7755 0.228652 14.6662L14.6662 0.2287C14.8127 0.0821683 15.0114 -0.000152588 15.2187 -0.000152588C15.4259 -0.000152588 15.6246 0.0821683 15.7712 0.2287C15.9177 0.375233 16 0.573973 16 0.7812C16 0.988428 15.9177 1.18717 15.7712 1.3337L1.33365 15.7712C1.26116 15.8438 1.17504 15.9014 1.08022 15.9407C0.985408 15.98 0.883772 16.0001 0.781152 16Z" fill="#000101"/>
<path d="M15.2186 16C15.116 16.0001 15.0144 15.98 14.9195 15.9407C14.8247 15.9014 14.7386 15.8438 14.6661 15.7712L0.228609 1.3337C0.0820768 1.18717 -0.000244141 0.988428 -0.000244141 0.7812C-0.000244141 0.573973 0.0820768 0.375233 0.228609 0.2287C0.375141 0.0821683 0.573881 -0.000152588 0.781109 -0.000152588C0.988337 -0.000152588 1.18708 0.0821683 1.33361 0.2287L15.7711 14.6662C15.8804 14.7755 15.9548 14.9147 15.985 15.0662C16.0151 15.2178 15.9997 15.3749 15.9405 15.5177C15.8814 15.6605 15.7812 15.7825 15.6527 15.8683C15.5242 15.9542 15.3731 16 15.2186 16Z" fill="#000101"/>
</g>
<defs>
<clipPath id="clip0_869_14976">
<rect width="16" height="16" fill="white"/>
</clipPath>
</defs>
</svg>
