<svg width="10" height="10" viewBox="0 0 10 10" fill="none" xmlns="http://www.w3.org/2000/svg">
<path opacity="0.3" d="M5 5.52688L6.5365 7.0635C6.60575 7.13267 6.69279 7.16808 6.79763 7.16975C6.90238 7.17133 6.991 7.13592 7.0635 7.0635C7.13592 6.991 7.17213 6.90317 7.17213 6.8C7.17213 6.69683 7.13592 6.609 7.0635 6.5365L5.52688 5L7.0635 3.4635C7.13267 3.39425 7.16808 3.30721 7.16975 3.20238C7.17133 3.09763 7.13592 3.009 7.0635 2.9365C6.991 2.86408 6.90317 2.82787 6.8 2.82787C6.69683 2.82787 6.609 2.86408 6.5365 2.9365L5 4.47312L3.4635 2.9365C3.39425 2.86733 3.30721 2.83192 3.20238 2.83025C3.09763 2.82867 3.009 2.86408 2.9365 2.9365C2.86408 3.009 2.82788 3.09683 2.82788 3.2C2.82788 3.30317 2.86408 3.391 2.9365 3.4635L4.47312 5L2.9365 6.5365C2.86733 6.60575 2.83192 6.69279 2.83025 6.79763C2.82867 6.90238 2.86408 6.991 2.9365 7.0635C3.009 7.13592 3.09683 7.17213 3.2 7.17213C3.30317 7.17213 3.391 7.13592 3.4635 7.0635L5 5.52688ZM5.00087 9.75C4.34387 9.75 3.72633 9.62533 3.14825 9.376C2.57017 9.12667 2.06733 8.78829 1.63975 8.36088C1.21217 7.93346 0.873625 7.43083 0.624125 6.853C0.374708 6.27517 0.25 5.65779 0.25 5.00087C0.25 4.34387 0.374667 3.72633 0.624 3.14825C0.873333 2.57017 1.21171 2.06733 1.63913 1.63975C2.06654 1.21217 2.56917 0.873625 3.147 0.624125C3.72483 0.374708 4.34221 0.25 4.99913 0.25C5.65613 0.25 6.27367 0.374666 6.85175 0.624C7.42983 0.873333 7.93267 1.21171 8.36025 1.63913C8.78783 2.06654 9.12638 2.56917 9.37588 3.147C9.62529 3.72483 9.75 4.34221 9.75 4.99913C9.75 5.65613 9.62533 6.27367 9.376 6.85175C9.12667 7.42983 8.78829 7.93267 8.36088 8.36025C7.93346 8.78783 7.43083 9.12638 6.853 9.37588C6.27517 9.62529 5.65779 9.75 5.00087 9.75Z" fill="#D31217"/>
</svg>
