<svg width="16" height="20" viewBox="0 0 16 20" fill="none" xmlns="http://www.w3.org/2000/svg">
<path d="M10.8707 3.49786H1.57318C0.700768 3.49786 -0.0078125 4.20644 -0.0078125 5.07886V18.419C-0.0078125 19.2914 0.700768 20 1.57318 20H10.8707C11.7432 20 12.4517 19.2914 12.4517 18.419V5.07886C12.4476 4.20644 11.7391 3.49786 10.8707 3.49786ZM11.3418 18.4149C11.3418 18.6771 11.1288 18.89 10.8666 18.89H1.56909C1.30695 18.89 1.09397 18.6771 1.09397 18.4149V5.07886C1.09397 4.81672 1.30695 4.60374 1.56909 4.60374H10.8666C11.1288 4.60374 11.3418 4.81672 11.3418 5.07886V18.4149Z" fill="#555555"/>
<path d="M14.4254 0H5.12787C4.25546 0 3.54688 0.708581 3.54688 1.581C3.54688 1.88818 3.79263 2.13393 4.09981 2.13393C4.407 2.13393 4.65275 1.88818 4.65275 1.581C4.65275 1.31886 4.86574 1.10588 5.12787 1.10588H14.4254C14.6876 1.10588 14.9006 1.31886 14.9006 1.581V14.9212C14.9006 15.1833 14.6876 15.3963 14.4254 15.3963C14.1182 15.3963 13.8725 15.642 13.8725 15.9492C13.8725 16.2564 14.1182 16.5021 14.4254 16.5021C15.2978 16.5021 16.0064 15.7936 16.0064 14.9212V1.581C16.0064 0.708581 15.2978 0 14.4254 0Z" fill="#555555"/>
</svg>
