<svg width="16" height="20" viewBox="0 0 16 20" fill="none" xmlns="http://www.w3.org/2000/svg">
<path fill-rule="evenodd" clip-rule="evenodd" d="M3.12002 0H9.81345L15.4777 5.91241V17.3942C15.4777 18.8321 14.3171 20 12.8791 20H3.12002C1.68936 20 0.521484 18.8321 0.521484 17.3942V2.59853C0.521459 1.16788 1.68936 0 3.12002 0Z" fill="#00733B"/>
<path fill-rule="evenodd" clip-rule="evenodd" d="M9.80664 0V5.86131H15.4782L9.80664 0Z" fill="#000101"/>
<path d="M6.74025 14.562H5.76946L5.10523 13.4452L4.44099 14.562H3.46289L4.61619 12.6204L3.6016 10.9343H4.57967L5.10521 11.8102L5.62345 10.9343H6.60154L5.59423 12.6277L6.74025 14.562ZM7.08332 14.562V10.9343H8.01032V13.7737H9.58696V14.562H7.08332V14.562ZM11.1198 14.6058C10.7548 14.6058 10.4337 14.489 10.1563 14.2628C9.88623 14.0438 9.73297 13.7664 9.71106 13.4379L10.5067 13.2044C10.5286 13.3795 10.6016 13.5328 10.7257 13.6496C10.8571 13.7664 11.003 13.8248 11.1636 13.8248C11.295 13.8248 11.4045 13.7956 11.4921 13.7372C11.5724 13.6788 11.6162 13.5985 11.6162 13.5036C11.6162 13.4234 11.5797 13.3577 11.514 13.2993C11.4483 13.2482 11.3607 13.2044 11.2585 13.1679C11.1563 13.1314 11.0322 13.0949 10.9081 13.0657C10.7767 13.0292 10.6453 12.9854 10.5213 12.927C10.3899 12.8759 10.2731 12.8102 10.1709 12.7299C10.0614 12.6569 9.98112 12.5475 9.91542 12.4087C9.84972 12.2774 9.81323 12.1168 9.81323 11.9343C9.81323 11.635 9.9373 11.3869 10.1928 11.1898C10.4483 10.9854 10.7548 10.8905 11.1125 10.8905C11.4702 10.8905 11.784 10.9781 12.0468 11.146C12.3096 11.3212 12.4774 11.5474 12.5431 11.8248L11.711 12.1752C11.6745 12.0219 11.6015 11.8978 11.4993 11.8029C11.3971 11.7153 11.2658 11.6642 11.1125 11.6642C10.9957 11.6642 10.9081 11.6934 10.8351 11.7372C10.7694 11.781 10.7402 11.8467 10.7402 11.927C10.7402 12 10.784 12.0657 10.8716 12.1168C10.9592 12.1606 11.076 12.1971 11.2074 12.219C11.3387 12.2409 11.4847 12.2774 11.638 12.3285C11.7986 12.3869 11.9373 12.4453 12.076 12.5256C12.2074 12.5986 12.3168 12.7227 12.4044 12.8832C12.4993 13.0511 12.5431 13.2482 12.5431 13.4745C12.5431 13.8102 12.4117 14.0876 12.149 14.292C11.8862 14.4963 11.5432 14.6058 11.1198 14.6058Z" fill="white"/>
</svg>
