<svg width="25" height="9" viewBox="0 0 25 9" fill="none" xmlns="http://www.w3.org/2000/svg">
<path d="M23.9054 -0.0100098H5.36488C5.26811 -0.0100098 5.1753 0.0271258 5.10687 0.0932274C5.03844 0.159329 5 0.248982 5 0.342464C5 0.435946 5.03844 0.525598 5.10687 0.5917C5.1753 0.657802 5.26811 0.694937 5.36488 0.694937H5.42113V4.51348C5.42113 4.60696 5.45957 4.69662 5.528 4.76272C5.59643 4.82882 5.68923 4.86595 5.78601 4.86595C5.88278 4.86595 5.97559 4.82882 6.04402 4.76272C6.11245 4.69662 6.15089 4.60696 6.15089 4.51348V0.694937H7.80895V2.01695C7.80895 2.11043 7.8474 2.20008 7.91583 2.26619C7.98425 2.33229 8.07706 2.36942 8.17384 2.36942C8.27061 2.36942 8.36342 2.33229 8.43185 2.26619C8.50027 2.20008 8.53872 2.11043 8.53872 2.01695V0.694937H10.1968V4.51348C10.1968 4.60696 10.2352 4.69662 10.3037 4.76272C10.3721 4.82882 10.4649 4.86595 10.5617 4.86595C10.6584 4.86595 10.7512 4.82882 10.8197 4.76272C10.8881 4.69662 10.9265 4.60696 10.9265 4.51348V0.694937H12.5846V2.01695C12.5846 2.11043 12.623 2.20008 12.6914 2.26619C12.7599 2.33229 12.8527 2.36942 12.9494 2.36942C13.0462 2.36942 13.139 2.33229 13.2075 2.26619C13.2759 2.20008 13.3143 2.11043 13.3143 2.01695V0.694937H14.9724V4.51348C14.9724 4.55977 14.9818 4.6056 15.0002 4.64837C15.0185 4.69113 15.0454 4.72999 15.0793 4.76272C15.1131 4.79545 15.1534 4.82141 15.1976 4.83912C15.2419 4.85684 15.2894 4.86595 15.3373 4.86595C15.434 4.86595 15.5269 4.82882 15.5953 4.76272C15.6637 4.69662 15.7022 4.60696 15.7022 4.51348V0.694937H17.3602V2.01695C17.3602 2.11043 17.3986 2.20008 17.467 2.26619C17.5355 2.33229 17.6283 2.36942 17.7251 2.36942C17.8218 2.36942 17.9146 2.33229 17.9831 2.26619C18.0515 2.20008 18.0899 2.11043 18.0899 2.01695V0.694937H19.748V4.51348C19.748 4.60696 19.7864 4.69662 19.8549 4.76272C19.9233 4.82882 20.0161 4.86595 20.1129 4.86595C20.2097 4.86595 20.3025 4.82882 20.3709 4.76272C20.4393 4.69662 20.4778 4.60696 20.4778 4.51348V0.694937H22.1358V2.01695C22.1358 2.11043 22.1742 2.20008 22.2426 2.26619C22.3111 2.33229 22.4039 2.36942 22.5007 2.36942C22.5486 2.36942 22.596 2.36031 22.6403 2.34259C22.6846 2.32488 22.7248 2.29892 22.7587 2.26619C22.7925 2.23346 22.8194 2.1946 22.8378 2.15184C22.8561 2.10907 22.8655 2.06324 22.8655 2.01695V0.694937H23.9053C24.1065 0.694937 24.2702 0.853032 24.2702 1.04741V7.93257C24.2702 8.12695 24.1065 8.28504 23.9053 8.28504H19.1832C19.0864 8.28504 18.9936 8.32218 18.9252 8.38828C18.8568 8.45438 18.8183 8.54403 18.8183 8.63752C18.8183 8.731 18.8568 8.82065 18.9252 8.88675C18.9936 8.95285 19.0864 8.98999 19.1832 8.98999H23.9053C24.5089 8.98999 25 8.51561 25 7.93252V1.04741C25.0001 0.464368 24.509 -0.0100098 23.9054 -0.0100098Z" fill="#000101"/>
<path d="M20.6322 8.28505H1.10345C0.900616 8.28505 0.735647 8.12695 0.735647 7.93257V1.04741C0.735647 0.853027 0.900616 0.694933 1.10345 0.694933H6.77847C6.87602 0.694933 6.96957 0.657798 7.03854 0.591697C7.10752 0.525596 7.14627 0.435943 7.14627 0.342462C7.14627 0.24898 7.10752 0.159328 7.03854 0.0932269C6.96957 0.0271256 6.87602 -0.0100098 6.77847 -0.0100098H1.10345C0.495005 -0.0100098 0 0.464366 0 1.04741V7.93253C0 8.51561 0.495005 8.98999 1.10345 8.98999H20.6322C20.7297 8.98999 20.8233 8.95285 20.8923 8.88675C20.9613 8.82065 21 8.731 21 8.63752C21 8.54404 20.9613 8.45438 20.8923 8.38828C20.8233 8.32218 20.7297 8.28505 20.6322 8.28505Z" fill="#000101"/>
<path d="M3.5 1.98999C2.67294 1.98999 2 2.66288 2 3.48999C2 4.31711 2.67289 4.98999 3.5 4.98999C4.32711 4.98999 5 4.31711 5 3.48999C5 2.66288 4.32711 1.98999 3.5 1.98999ZM3.5 4.22867C3.09268 4.22867 2.76127 3.89726 2.76127 3.48994C2.76127 3.08262 3.09268 2.75121 3.5 2.75121C3.90737 2.75121 4.23878 3.08262 4.23878 3.48994C4.23873 3.89726 3.90732 4.22867 3.5 4.22867Z" fill="#000101"/>
</svg>
