<svg width="16" height="17" viewBox="0 0 16 17" fill="none" xmlns="http://www.w3.org/2000/svg">
<path d="M9.75 12.375C9.88261 12.375 10.0098 12.3223 10.1036 12.2286C10.1973 12.1348 10.25 12.0076 10.25 11.875V6.875C10.25 6.74239 10.1973 6.61521 10.1036 6.52145C10.0098 6.42768 9.88261 6.375 9.75 6.375C9.61739 6.375 9.49021 6.42768 9.39645 6.52145C9.30268 6.61521 9.25 6.74239 9.25 6.875V11.875C9.25 12.0076 9.30268 12.1348 9.39645 12.2286C9.49021 12.3223 9.61739 12.375 9.75 12.375ZM6.25 12.375C6.38261 12.375 6.50979 12.3223 6.60355 12.2286C6.69732 12.1348 6.75 12.0076 6.75 11.875V6.875C6.75 6.74239 6.69732 6.61521 6.60355 6.52145C6.50979 6.42768 6.38261 6.375 6.25 6.375C6.11739 6.375 5.99021 6.42768 5.89645 6.52145C5.80268 6.61521 5.75 6.74239 5.75 6.875V11.875C5.75 12.0076 5.80268 12.1348 5.89645 12.2286C5.99021 12.3223 6.11739 12.375 6.25 12.375ZM10 2.625C10.1326 2.625 10.2598 2.57232 10.3536 2.47855C10.4473 2.38479 10.5 2.25761 10.5 2.125C10.5 1.99239 10.4473 1.86521 10.3536 1.77145C10.2598 1.67768 10.1326 1.625 10 1.625H6C5.86739 1.625 5.74021 1.67768 5.64645 1.77145C5.55268 1.86521 5.5 1.99239 5.5 2.125C5.5 2.25761 5.55268 2.38479 5.64645 2.47855C5.74021 2.57232 5.86739 2.625 6 2.625H10Z" fill="#000101"/>
<path d="M2.5 3.125C2.36739 3.125 2.24021 3.17768 2.14645 3.27145C2.05268 3.36521 2 3.49239 2 3.625C2 3.75761 2.05268 3.88479 2.14645 3.97855C2.24021 4.07232 2.36739 4.125 2.5 4.125H3V13.325C3 14.455 3.92 15.375 5.05 15.375H10.95C12.08 15.375 13 14.455 13 13.325V4.125H13.5C13.6326 4.125 13.7598 4.07232 13.8536 3.97855C13.9473 3.88479 14 3.75761 14 3.625C14 3.49239 13.9473 3.36521 13.8536 3.27145C13.7598 3.17768 13.6326 3.125 13.5 3.125H3.5H2.5ZM12 4.125V13.325C12 13.6035 11.8894 13.8705 11.6925 14.0675C11.4955 14.2644 11.2285 14.375 10.95 14.375H5.05C4.77152 14.375 4.50445 14.2644 4.30754 14.0675C4.11062 13.8705 4 13.6035 4 13.325V4.125H12Z" fill="#000101"/>
</svg>
