<svg width="26" height="24" viewBox="0 0 26 24" fill="none" xmlns="http://www.w3.org/2000/svg">
<path d="M25.75 20.5V16.25C25.75 15.9682 25.6381 15.698 25.4388 15.4987C25.2395 15.2994 24.9693 15.1875 24.6875 15.1875C24.4057 15.1875 24.1355 15.2994 23.9362 15.4987C23.7369 15.698 23.625 15.9682 23.625 16.25V20.5C23.625 20.7818 23.5131 21.052 23.3138 21.2513C23.1145 21.4506 22.8443 21.5625 22.5625 21.5625H3.4375C3.15571 21.5625 2.88546 21.4506 2.6862 21.2513C2.48694 21.052 2.375 20.7818 2.375 20.5V16.25C2.375 15.9682 2.26306 15.698 2.0638 15.4987C1.86454 15.2994 1.59429 15.1875 1.3125 15.1875C1.03071 15.1875 0.760457 15.2994 0.561199 15.4987C0.361942 15.698 0.25 15.9682 0.25 16.25V20.5C0.25 21.3454 0.585825 22.1561 1.1836 22.7539C1.78137 23.3517 2.59212 23.6875 3.4375 23.6875H22.5625C23.4079 23.6875 24.2186 23.3517 24.8164 22.7539C25.4142 22.1561 25.75 21.3454 25.75 20.5ZM18.9713 14.9538L13.6588 19.2038C13.4712 19.352 13.2391 19.4326 13 19.4326C12.7609 19.4326 12.5288 19.352 12.3413 19.2038L7.02875 14.9538C6.83518 14.771 6.71724 14.5223 6.69828 14.2568C6.67931 13.9913 6.76069 13.7283 6.92633 13.52C7.09196 13.3116 7.32977 13.173 7.59271 13.1315C7.85566 13.0901 8.12457 13.1489 8.34625 13.2962L11.9375 16.165V1.375C11.9375 1.09321 12.0494 0.822957 12.2487 0.623699C12.448 0.424442 12.7182 0.3125 13 0.3125C13.2818 0.3125 13.552 0.424442 13.7513 0.623699C13.9506 0.822957 14.0625 1.09321 14.0625 1.375V16.165L17.6537 13.2962C17.7607 13.1953 17.8875 13.1176 18.0261 13.0682C18.1647 13.0187 18.312 12.9986 18.4588 13.0091C18.6055 13.0196 18.7485 13.0604 18.8787 13.1291C19.0088 13.1977 19.1233 13.2926 19.2148 13.4078C19.3064 13.5229 19.373 13.6559 19.4105 13.7981C19.448 13.9404 19.4555 14.0889 19.4326 14.2343C19.4097 14.3796 19.3569 14.5186 19.2775 14.6424C19.1981 14.7663 19.0938 14.8723 18.9713 14.9538Z" fill="#777777"/>
</svg>
