<svg width="22" height="22" viewBox="0 0 22 22" fill="none" xmlns="http://www.w3.org/2000/svg">
<path d="M12.47 15.5C12.2451 15.5209 12.0193 15.4702 11.825 15.3549C11.7549 15.283 11.7019 15.1962 11.6699 15.101C11.6379 15.0058 11.6277 14.9046 11.64 14.8049C11.6453 14.6368 11.6653 14.4695 11.7 14.305C11.7336 14.1161 11.7769 13.9292 11.83 13.7449L12.42 11.7149C12.4808 11.5145 12.5211 11.3085 12.54 11.0999C12.54 10.8749 12.57 10.7199 12.57 10.6299C12.5762 10.432 12.5376 10.2352 12.4571 10.0542C12.3766 9.87327 12.2562 9.71284 12.105 9.58492C11.7282 9.29566 11.259 9.15347 10.785 9.18493C10.4453 9.19004 10.1083 9.24564 9.78498 9.34993C9.43165 9.45993 9.05997 9.59158 8.66998 9.74494L8.5 10.4049C8.61498 10.3649 8.75502 10.3199 8.91499 10.2699C9.06761 10.2247 9.22582 10.2012 9.38498 10.1999C9.60826 10.1757 9.83296 10.2306 10.02 10.3549C10.0828 10.4299 10.1299 10.5169 10.1582 10.6106C10.1866 10.7042 10.1957 10.8027 10.185 10.8999C10.1844 11.0681 10.166 11.2357 10.13 11.3999C10.095 11.5749 10.05 11.7599 9.99497 11.9549L9.39998 13.9949C9.35203 14.1845 9.31365 14.3764 9.285 14.5699C9.26163 14.7355 9.24993 14.9026 9.24998 15.0699C9.24877 15.2691 9.29321 15.466 9.37987 15.6454C9.46654 15.8248 9.59314 15.982 9.74996 16.1049C10.1326 16.3986 10.6085 16.5443 11.0899 16.5149C11.429 16.5218 11.7669 16.4728 12.09 16.3699C12.3733 16.2732 12.7516 16.1349 13.225 15.9549L13.385 15.3249C13.2568 15.3781 13.1247 15.4215 12.99 15.4548C12.8196 15.4937 12.6446 15.5089 12.47 15.5ZM13.095 5.87496C12.8229 5.62505 12.4643 5.4906 12.095 5.49997C11.7258 5.49165 11.3676 5.62595 11.095 5.87496C10.5952 6.30594 10.5393 7.06051 10.9704 7.56037C11.0088 7.60492 11.0504 7.64657 11.095 7.68497C11.6644 8.19428 12.5256 8.19428 13.0949 7.68497C13.5948 7.24974 13.6471 6.49178 13.2119 5.99196C13.1757 5.9503 13.1366 5.91121 13.095 5.87496Z" fill="#000101"/>
<path d="M11 0C4.92486 0 0 4.92486 0 11C0 17.0751 4.92486 22 11 22C17.0751 22 22 17.0751 22 11C22 4.92486 17.0751 0 11 0ZM11 21C5.47714 21 1.00001 16.5229 1.00001 11C1.00001 5.47714 5.47714 1.00001 11 1.00001C16.5229 1.00001 21 5.47714 21 11C21 16.5229 16.5229 21 11 21Z" fill="#000101"/>
</svg>
