<svg width="22" height="22" viewBox="0 0 22 22" fill="none" xmlns="http://www.w3.org/2000/svg">
<path d="M12.375 19.25H8.70833C8.58678 19.25 8.4702 19.2017 8.38424 19.1158C8.29829 19.0298 8.25 18.9132 8.25 18.7917C8.25 18.6701 8.29829 18.5535 8.38424 18.4676C8.4702 18.3816 8.58678 18.3334 8.70833 18.3334H12.375C13.1331 18.3334 13.75 17.7164 13.75 16.9584V12.375C13.75 12.2535 13.7983 12.1369 13.8842 12.0509C13.9702 11.965 14.0868 11.9167 14.2083 11.9167C14.3299 11.9167 14.4465 11.965 14.5324 12.0509C14.6184 12.1369 14.6667 12.2535 14.6667 12.375V16.9584C14.6667 18.2215 13.6391 19.25 12.375 19.25ZM21.5417 10.0834H12.375C12.2534 10.0834 12.1369 10.0351 12.0509 9.94911C11.965 9.86316 11.9167 9.74658 11.9167 9.62502C11.9167 9.50346 11.965 9.38688 12.0509 9.30093C12.1369 9.21498 12.2534 9.16669 12.375 9.16669H21.5417C21.6632 9.16669 21.7798 9.21498 21.8658 9.30093C21.9517 9.38688 22 9.50346 22 9.62502C22 9.74658 21.9517 9.86316 21.8658 9.94911C21.7798 10.0351 21.6632 10.0834 21.5417 10.0834Z" fill="#000101"/>
<path d="M7.33333 22C7.13167 22 6.93458 21.9661 6.7485 21.9001L1.25767 20.0695C0.892214 19.9489 0.574026 19.7163 0.348268 19.4047C0.12251 19.093 0.00065511 18.7182 0 18.3333L0 1.83333C0 0.82225 0.82225 0 1.83333 0C2.03683 0 2.23483 0.0339167 2.41908 0.100833L7.909 1.9305C8.2746 2.05083 8.59295 2.28339 8.81875 2.59509C9.04454 2.9068 9.16629 3.28177 9.16667 3.66667V20.1667C9.16667 21.1777 8.34442 22 7.33333 22ZM1.83333 0.916667C1.32733 0.916667 0.916667 1.32825 0.916667 1.83333V18.3333C0.917453 18.5258 0.97879 18.7131 1.09198 18.8687C1.20518 19.0244 1.36449 19.1405 1.54733 19.2005L7.04733 21.0338C7.64867 21.2474 8.25 20.7662 8.25 20.1667V3.66667C8.24958 3.47424 8.18837 3.28686 8.07511 3.13129C7.96185 2.97573 7.80233 2.85992 7.61933 2.80042L2.11933 0.967083C2.02763 0.933866 1.93086 0.916808 1.83333 0.916667Z" fill="#000101"/>
<path d="M14.2083 7.33333C14.0868 7.33333 13.9702 7.28504 13.8842 7.19909C13.7983 7.11314 13.75 6.99656 13.75 6.875V2.29167C13.75 1.53358 13.1331 0.916667 12.375 0.916667H1.83333C1.71178 0.916667 1.5952 0.868378 1.50924 0.782424C1.42329 0.69647 1.375 0.579891 1.375 0.458333C1.375 0.336776 1.42329 0.220197 1.50924 0.134243C1.5952 0.0482886 1.71178 0 1.83333 0L12.375 0C13.6391 0 14.6667 1.0285 14.6667 2.29167V6.875C14.6667 6.99656 14.6184 7.11314 14.5324 7.19909C14.4465 7.28504 14.3299 7.33333 14.2083 7.33333ZM17.875 13.75C17.7844 13.75 17.6959 13.7231 17.6205 13.6728C17.5452 13.6225 17.4865 13.551 17.4518 13.4674C17.417 13.3837 17.4079 13.2916 17.4255 13.2028C17.443 13.1139 17.4865 13.0322 17.5505 12.9681L20.8927 9.62592L17.5505 6.28375C17.467 6.19731 17.4208 6.08153 17.4219 5.96136C17.4229 5.84118 17.4711 5.72623 17.5561 5.64125C17.6411 5.55627 17.756 5.50807 17.8762 5.50702C17.9964 5.50598 18.1121 5.55218 18.1986 5.63567L21.8652 9.30233C21.9512 9.38828 21.9994 9.50484 21.9994 9.62638C21.9994 9.74791 21.9512 9.86447 21.8652 9.95042L18.1986 13.6171C18.1125 13.7023 17.9962 13.7501 17.875 13.75Z" fill="#000101"/>
</svg>
