<svg width="20" height="22" viewBox="0 0 20 22" fill="none" xmlns="http://www.w3.org/2000/svg">
<path d="M9.87155 10.5975C11.3274 10.5975 12.5879 10.0753 13.6182 9.04503C14.6481 8.01499 15.1704 6.75463 15.1704 5.29859C15.1704 3.84299 14.6483 2.5825 13.618 1.55207C12.5878 0.522155 11.3272 0 9.87155 0C8.41547 0 7.15507 0.522155 6.12503 1.55224C5.09498 2.58233 4.57261 3.84286 4.57261 5.29859C4.57261 6.75463 5.09494 8.01516 6.12507 9.04525C7.15546 10.0752 8.41599 10.5975 9.87151 10.5975H9.87155ZM7.03678 2.46382C7.82715 1.67341 8.75437 1.28923 9.87155 1.28923C10.9886 1.28923 11.9159 1.67341 12.7065 2.46382C13.4969 3.25436 13.8812 4.18171 13.8812 5.29855C13.8812 6.41574 13.4969 7.34296 12.7065 8.1335C11.9159 8.92408 10.9886 9.30826 9.87155 9.30826C8.75467 9.30826 7.82753 8.9239 7.03678 8.1335C6.2462 7.34313 5.86185 6.41578 5.86185 5.29859C5.86185 4.18171 6.2462 3.25436 7.03678 2.46382ZM19.1432 16.9169C19.1135 16.4882 19.0534 16.0206 18.9649 15.5268C18.8756 15.0293 18.7607 14.559 18.623 14.1291C18.4807 13.6848 18.2875 13.2461 18.0483 12.8256C17.8004 12.3892 17.5091 12.0092 17.1821 11.6965C16.8402 11.3694 16.4216 11.1064 15.9375 10.9145C15.4551 10.7237 14.9205 10.6271 14.3487 10.6271C14.1241 10.6271 13.9069 10.7192 13.4875 10.9923C13.1893 11.1864 12.8902 11.3792 12.5903 11.5706C12.3021 11.7543 11.9117 11.9263 11.4295 12.0821C10.959 12.2343 10.4813 12.3116 10.0097 12.3116C9.53837 12.3116 9.06065 12.2343 8.58984 12.0821C8.10816 11.9265 7.71758 11.7545 7.42986 11.5708C7.09599 11.3575 6.79392 11.1628 6.5319 10.9921C6.11278 10.719 5.89558 10.6268 5.67102 10.6268C5.09898 10.6268 4.56458 10.7237 4.08234 10.9147C3.5986 11.1062 3.17983 11.3693 2.83758 11.6967C2.51063 12.0096 2.21926 12.3894 1.97151 12.8256C1.73269 13.2461 1.53933 13.6847 1.39697 14.1293C1.25947 14.5592 1.14453 15.0293 1.05524 15.5268C0.966597 16.0199 0.906699 16.4877 0.876965 16.9174C0.847746 17.3375 0.833008 17.7748 0.833008 18.2165C0.833008 19.3649 1.19807 20.2946 1.91797 20.9803C2.62897 21.6569 3.5696 22 4.71377 22H15.3069C16.4507 22 17.3914 21.6569 18.1025 20.9803C18.8226 20.2951 19.1877 19.3651 19.1877 18.2164C19.1875 17.7731 19.1726 17.3358 19.1432 16.9169ZM17.2137 20.0462C16.7438 20.4933 16.1201 20.7107 15.3067 20.7107H4.71381C3.90028 20.7107 3.27655 20.4933 2.8069 20.0464C2.34619 19.6078 2.12228 19.0091 2.12228 18.2165C2.12228 17.8043 2.13586 17.3973 2.1631 17.0065C2.18957 16.6232 2.2438 16.202 2.32424 15.7545C2.4036 15.3126 2.50462 14.8979 2.6248 14.5224C2.74013 14.1623 2.89739 13.8059 3.09243 13.4625C3.27857 13.1351 3.49273 12.8543 3.72905 12.6281C3.95013 12.4164 4.22878 12.2432 4.55706 12.1133C4.86068 11.9931 5.20193 11.9273 5.57237 11.9174C5.61748 11.9415 5.69792 11.9873 5.82816 12.0722C6.09319 12.2449 6.39865 12.442 6.73639 12.6576C7.11709 12.9004 7.60749 13.1195 8.19345 13.3087C8.79248 13.5024 9.40345 13.6007 10.0099 13.6007C10.6163 13.6007 11.2274 13.5024 11.8262 13.3089C12.4126 13.1194 12.9029 12.9004 13.2841 12.6573C13.6297 12.4364 13.9266 12.2451 14.1916 12.0722C14.3219 11.9874 14.4023 11.9414 14.4474 11.9174C14.818 11.9273 15.1592 11.9931 15.463 12.1133C15.7912 12.2432 16.0698 12.4166 16.2909 12.6281C16.5272 12.8542 16.7413 13.135 16.9275 13.4626C17.1227 13.8059 17.2802 14.1626 17.3953 14.5222C17.5156 14.8982 17.6168 15.3128 17.6961 15.7544C17.7763 16.2027 17.8307 16.624 17.8572 17.0067V17.007C17.8846 17.3962 17.8983 17.8031 17.8985 18.2165C17.8983 19.0093 17.6744 19.6078 17.2137 20.0462H17.2137Z" fill="#000101"/>
</svg>
