<svg width="21" height="22" viewBox="0 0 21 22" fill="none" xmlns="http://www.w3.org/2000/svg">
<path d="M17.1952 12.8073V3.32709C17.1952 3.18294 17.149 2.99029 17.0511 2.89419L14.1636 0.00669278C14.0675 -0.0894032 13.8268 -0.137451 13.6821 -0.137451H2.27676C1.45856 -0.137451 0.833008 0.488097 0.833008 1.3063V19.5932C0.833008 20.4114 1.45856 21.0369 2.27676 21.0369H12.383C13.2012 21.6144 14.1636 21.9993 15.2705 21.9993C17.9173 21.9993 20.0832 19.8339 20.0832 17.1866C20.0827 15.2619 18.8796 13.5775 17.1952 12.8073ZM14.3077 1.54608L15.5588 2.79717H14.7891C14.5003 2.79717 14.3077 2.60452 14.3077 2.31577V1.54608ZM2.27676 20.1226C1.98801 20.1226 1.79535 19.93 1.79535 19.6412V1.35388C1.79535 1.06513 1.98801 0.872481 2.27676 0.872481H13.3454V2.31623C13.3454 3.13443 13.9709 3.75998 14.7891 3.75998H16.2328V12.5186C15.9152 12.4604 15.5934 12.4282 15.2705 12.4225C12.6237 12.4225 10.4579 14.5883 10.4579 17.2351C10.4579 18.3439 10.8427 19.3044 11.4202 20.1226H2.27676ZM15.2705 21.085C14.5091 21.085 13.7647 20.8592 13.1316 20.4362C12.4985 20.0131 12.0051 19.4119 11.7137 18.7084C11.4223 18.0049 11.3461 17.2309 11.4946 16.4841C11.6432 15.7373 12.0098 15.0513 12.5483 14.5129C13.0867 13.9745 13.7726 13.6078 14.5194 13.4593C15.2662 13.3107 16.0403 13.3869 16.7438 13.6783C17.4472 13.9697 18.0485 14.4632 18.4715 15.0963C18.8946 15.7294 19.1203 16.4737 19.1203 17.2351C19.1173 18.2552 18.7107 19.2327 17.9894 19.954C17.2681 20.6753 16.2906 21.0819 15.2705 21.085Z" fill="#000101"/>
<path d="M4.68258 6.6475H9.01382C9.30257 6.6475 9.49523 6.45485 9.49523 6.1661C9.49523 5.87735 9.30257 5.68469 9.01382 5.68469H4.68258C4.39383 5.68469 4.20117 5.87735 4.20117 6.1661C4.20117 6.45485 4.39383 6.6475 4.68258 6.6475Z" fill="#000101"/>
<path d="M4.68258 9.05359H13.3451C13.6338 9.05359 13.8265 8.86094 13.8265 8.57219C13.8265 8.28344 13.6338 8.09125 13.3451 8.09125H4.68258C4.39383 8.09125 4.20117 8.2839 4.20117 8.57265C4.20117 8.8614 4.39383 9.05359 4.68258 9.05359ZM11.9013 10.9787C11.9013 10.69 11.7087 10.4973 11.4199 10.4973H4.68258C4.39383 10.4973 4.20117 10.69 4.20117 10.9787C4.20117 11.2675 4.39383 11.4602 4.68258 11.4602H11.4199C11.7087 11.4602 11.9013 11.2675 11.9013 10.9787ZM16.9062 15.358C16.6655 15.2619 16.3767 15.358 16.2806 15.5507L15.1256 17.8607L14.1633 16.8984C14.1192 16.8535 14.0666 16.8178 14.0087 16.7934C13.9507 16.7689 13.8885 16.7562 13.8256 16.7559C13.7627 16.7557 13.7004 16.7678 13.6422 16.7918C13.5841 16.8157 13.5312 16.851 13.4868 16.8954C13.4423 16.9399 13.4071 16.9928 13.3831 17.0509C13.3592 17.1091 13.347 17.1714 13.3473 17.2343C13.3475 17.2972 13.3603 17.3594 13.3847 17.4174C13.4091 17.4753 13.4448 17.5279 13.4897 17.5719L14.9334 19.0175C14.9757 19.0646 15.0278 19.1019 15.0859 19.1269C15.1441 19.1518 15.207 19.1639 15.2702 19.1622H15.3663C15.5109 19.116 15.6551 19.018 15.7031 18.9214L17.145 16.0321C17.1912 15.9096 17.1925 15.7748 17.1488 15.6514C17.1051 15.528 17.0191 15.4241 16.9062 15.358Z" fill="#000101"/>
</svg>
