<svg width="18" height="22" viewBox="0 0 18 22" fill="none" xmlns="http://www.w3.org/2000/svg">
<path d="M15.442 2.88241H13.4517V1.99201C13.4517 1.70394 13.1374 1.57301 12.8494 1.57301H11.3043C10.9376 0.525466 10.021 0.00169566 8.97349 0.00169566C7.93748 -0.0372525 6.99515 0.597999 6.64271 1.57301H5.12378C4.83571 1.57301 4.54763 1.70394 4.54763 1.99201V2.88241H2.55727C1.37779 2.89499 0.412862 3.82543 0.357422 5.00365V20.0096C0.357422 21.1619 1.40496 21.9999 2.55727 21.9999H15.442C16.5943 21.9999 17.6418 21.1619 17.6418 20.0096V5.0037C17.5864 3.82543 16.6215 2.89499 15.442 2.88241ZM5.59512 2.62055H7.0355C7.15798 2.6056 7.27243 2.55174 7.36201 2.46688C7.45159 2.38202 7.51156 2.27065 7.53311 2.14916C7.6882 1.47376 8.28074 0.988934 8.97349 0.970688C9.65982 0.99149 10.2434 1.47782 10.3877 2.14916C10.4105 2.27462 10.4743 2.38895 10.5691 2.47426C10.6639 2.55956 10.7843 2.61101 10.9114 2.62055H12.4042V4.71563H5.59512V2.62055ZM16.5943 20.0097C16.5943 20.5858 16.0181 20.9524 15.442 20.9524H2.55727C1.98111 20.9524 1.40496 20.5858 1.40496 20.0097V5.0037C1.4584 4.40399 1.95525 3.94097 2.55727 3.93H4.54758V5.26561C4.57525 5.55905 4.82939 5.77856 5.12373 5.76322H12.8493C12.9939 5.77113 13.1361 5.72432 13.2477 5.63211C13.3593 5.53991 13.4321 5.40906 13.4516 5.26561V3.92995H15.4419C16.0439 3.94097 16.5408 4.40394 16.5942 5.00365V20.0097H16.5943Z" fill="#000101"/>
<path d="M6.98335 13.5413C6.7869 13.3342 6.46078 13.3225 6.25005 13.5151L4.57398 15.1126L3.86689 14.3793C3.67045 14.1722 3.34433 14.1606 3.1336 14.3531C3.03594 14.4554 2.98145 14.5914 2.98145 14.7328C2.98145 14.8743 3.03594 15.0103 3.1336 15.1126L4.2073 16.2125C4.25321 16.2639 4.30983 16.3046 4.37317 16.3318C4.43652 16.3589 4.50504 16.3718 4.57393 16.3696C4.71208 16.3677 4.84386 16.3112 4.94055 16.2125L6.98325 14.2746C7.18576 14.0888 7.19929 13.774 7.01347 13.5715C7.00393 13.561 6.99388 13.5509 6.98335 13.5413ZM14.4994 14.6673H8.47611C8.18683 14.6673 7.95234 14.9018 7.95234 15.1911C7.95234 15.4804 8.18683 15.7149 8.47611 15.7149H14.4994C14.7887 15.7149 15.0232 15.4804 15.0232 15.1911C15.0232 14.9018 14.7887 14.6673 14.4994 14.6673ZM6.98335 9.3511C6.7869 9.14402 6.46078 9.13234 6.25005 9.32493L4.57398 10.9224L3.86689 10.1891C3.67045 9.98204 3.34433 9.97036 3.1336 10.1629C3.03594 10.2652 2.98145 10.4012 2.98145 10.5427C2.98145 10.6841 3.03594 10.8201 3.1336 10.9224L4.2073 12.0223C4.25321 12.0737 4.30983 12.1144 4.37317 12.1416C4.43652 12.1687 4.50504 12.1817 4.57393 12.1795C4.71208 12.1775 4.84386 12.121 4.94055 12.0223L6.98325 10.0844C7.18576 9.89863 7.19929 9.58383 7.01347 9.38137C7.00393 9.3708 6.99388 9.36069 6.98335 9.3511ZM14.4994 10.4772H8.47611C8.18683 10.4772 7.95234 10.7117 7.95234 11.001C7.95234 11.2902 8.18683 11.5247 8.47611 11.5247H14.4994C14.7887 11.5247 15.0232 11.2902 15.0232 11.001C15.0232 10.7117 14.7887 10.4772 14.4994 10.4772Z" fill="#000101"/>
</svg>
