<svg width="22" height="22" viewBox="0 0 22 22" fill="none" xmlns="http://www.w3.org/2000/svg">
<path d="M11 20.776C10.6867 20.776 10.3848 20.6626 10.1495 20.4564C9.26074 19.6793 8.4039 18.949 7.64791 18.3048L7.64404 18.3015C5.42763 16.4127 3.51368 14.7816 2.18199 13.1748C0.693385 11.3785 0 9.67534 0 7.81476C0 6.00706 0.619866 4.33932 1.74526 3.11858C2.8841 1.8834 4.44674 1.20312 6.14585 1.20312C7.41579 1.20312 8.57878 1.60462 9.60251 2.39636C10.1191 2.79597 10.5874 3.28509 11 3.85558C11.4127 3.28509 11.8808 2.79597 12.3976 2.39636C13.4213 1.60462 14.5843 1.20312 15.8543 1.20312C17.5532 1.20312 19.116 1.8834 20.2549 3.11858C21.3803 4.33932 22 6.00706 22 7.81476C22 9.6753 21.3067 11.3785 19.8181 13.1746C18.4864 14.7816 16.5726 16.4125 14.3566 18.3011C13.5992 18.9463 12.7411 19.6778 11.8503 20.4568C11.6149 20.6627 11.3127 20.7761 11 20.776ZM6.14585 2.49184C4.81099 2.49184 3.5847 3.02461 2.69259 3.99205C1.78724 4.97414 1.28854 6.33169 1.28854 7.81476C1.28854 9.37959 1.87013 10.7791 3.17414 12.3525C4.43449 13.8733 6.30918 15.4709 8.47978 17.3208L8.48378 17.3241C9.2426 17.9708 10.1028 18.704 10.9981 19.4868C11.8988 18.7025 12.7604 17.9681 13.5207 17.3204C15.6911 15.4706 17.5656 13.8733 18.826 12.3525C20.1298 10.7791 20.7114 9.37959 20.7114 7.81476C20.7114 6.33165 20.2127 4.9741 19.3074 3.99205C18.4154 3.02461 17.189 2.49184 15.8543 2.49184C14.8764 2.49184 13.9786 2.80272 13.1858 3.41567C12.4794 3.96219 11.9873 4.65304 11.6987 5.13643C11.5504 5.38501 11.2892 5.53338 11 5.53338C10.7108 5.53338 10.4496 5.38501 10.3012 5.13643C10.0129 4.65304 9.52074 3.96219 8.81408 3.41567C8.02139 2.80272 7.12356 2.49184 6.14585 2.49184Z" fill="#000101"/>
</svg>
