<svg width="22" height="19" viewBox="0 0 22 19" fill="none" xmlns="http://www.w3.org/2000/svg">
<path d="M18.2347 18.3422L14.7155 14.8537C14.1256 15.0819 13.5195 15.2467 12.897 15.348C12.2746 15.4493 11.6423 15.5 11 15.5C8.89481 15.5 6.96689 14.9401 5.21623 13.8202C3.46573 12.7002 2.07831 11.2242 1.05398 9.39225C0.970643 9.24875 0.909727 9.10258 0.871227 8.95375C0.832727 8.80508 0.813477 8.65383 0.813477 8.5C0.813477 8.34616 0.83431 8.19325 0.875977 8.04125C0.917643 7.88941 0.980143 7.74491 1.06348 7.60775C1.46214 6.94491 1.88589 6.30358 2.33473 5.68375C2.78339 5.06375 3.30514 4.51533 3.89998 4.0385L1.64223 1.76525C1.50389 1.62691 1.43306 1.4555 1.42973 1.251C1.42656 1.0465 1.50256 0.866664 1.65773 0.711498C1.80256 0.566664 1.97823 0.494247 2.18473 0.494247C2.39106 0.494247 2.56664 0.566664 2.71148 0.711498L19.2885 17.2885C19.427 17.427 19.5004 17.5984 19.5087 17.8027C19.5171 18.0072 19.4436 18.1871 19.2885 18.3422C19.1436 18.4871 18.968 18.5595 18.7615 18.5595C18.5551 18.5595 18.3796 18.4871 18.2347 18.3422ZM11 12.577C11.2218 12.577 11.4336 12.5638 11.6355 12.5375C11.8375 12.5112 12.0346 12.4537 12.227 12.3652L7.13473 7.273C7.05256 7.46533 6.99673 7.6625 6.96723 7.8645C6.93773 8.06633 6.92298 8.27816 6.92298 8.5C6.92298 9.63466 7.31881 10.5978 8.11048 11.3895C8.90214 12.1812 9.86531 12.577 11 12.577ZM11 1.5C13.1115 1.5 15.0483 2.0625 16.8105 3.1875C18.5726 4.3125 19.9627 5.79741 20.9807 7.64225C21.0576 7.76925 21.1168 7.9055 21.1585 8.051C21.2001 8.1965 21.221 8.34616 21.221 8.5C21.221 8.65383 21.2027 8.8035 21.1662 8.949C21.1297 9.0945 21.073 9.23075 20.996 9.35775C20.6921 9.93591 20.3525 10.4807 19.977 10.9922C19.6013 11.5037 19.1814 11.9852 18.7172 12.4365C18.5096 12.6442 18.2634 12.7397 17.9787 12.723C17.6942 12.7063 17.4481 12.5942 17.2402 12.3865L15.1442 10.3C15.0404 10.1962 14.9718 10.0762 14.9385 9.94025C14.9051 9.80441 14.9071 9.66275 14.9442 9.51525C14.9916 9.34358 15.0255 9.17691 15.046 9.01525C15.0666 8.85375 15.077 8.682 15.077 8.5C15.077 7.36533 14.6811 6.40216 13.8895 5.6105C13.0978 4.81883 12.1346 4.423 11 4.423C10.818 4.423 10.6478 4.43491 10.4895 4.45875C10.3311 4.48241 10.1692 4.518 10.0037 4.5655C9.85639 4.609 9.70898 4.61408 9.56148 4.58075C9.41414 4.54741 9.28856 4.47883 9.18473 4.375L8.25373 3.44425C7.96923 3.15958 7.87473 2.82816 7.97023 2.45C8.06573 2.07183 8.30581 1.83083 8.69048 1.727C9.06864 1.65 9.44939 1.59291 9.83273 1.55575C10.2161 1.51858 10.6051 1.5 11 1.5ZM12.9365 6.6115C13.1391 6.83466 13.3061 7.085 13.4375 7.3625C13.5688 7.64 13.6511 7.93008 13.6845 8.23275C13.7011 8.35325 13.656 8.43691 13.549 8.48375C13.442 8.53041 13.3416 8.507 13.248 8.4135L11.102 6.277C11.0083 6.18333 10.9875 6.083 11.0395 5.976C11.0913 5.869 11.1775 5.8155 11.298 5.8155C11.6211 5.84233 11.9192 5.92341 12.1922 6.05875C12.4654 6.19391 12.7135 6.37816 12.9365 6.6115Z" fill="#c5c5c5"/>
</svg>
