<svg width="22" height="15" viewBox="0 0 22 15" fill="none" xmlns="http://www.w3.org/2000/svg">
<path d="M11.0022 11.577C12.1354 11.577 13.0978 11.1804 13.8895 10.3872C14.6811 9.59408 15.077 8.63092 15.077 7.49775C15.077 6.36458 14.6804 5.40217 13.8872 4.6105C13.094 3.81883 12.1309 3.423 10.9977 3.423C9.86454 3.423 8.90212 3.81958 8.11046 4.61275C7.31879 5.40592 6.92296 6.36908 6.92296 7.50225C6.92296 8.63542 7.31954 9.59783 8.11271 10.3895C8.90587 11.1812 9.86904 11.577 11.0022 11.577ZM11 10.2C10.25 10.2 9.61245 9.9375 9.08745 9.4125C8.56245 8.8875 8.29995 8.25 8.29995 7.5C8.29995 6.75 8.56245 6.1125 9.08745 5.5875C9.61245 5.0625 10.25 4.8 11 4.8C11.75 4.8 12.3875 5.0625 12.9125 5.5875C13.4375 6.1125 13.7 6.75 13.7 7.5C13.7 8.25 13.4375 8.8875 12.9125 9.4125C12.3875 9.9375 11.75 10.2 11 10.2ZM11 14.5C8.89479 14.5 6.96946 13.9384 5.22396 12.8152C3.47846 11.6922 2.0852 10.2148 1.0442 8.38275C0.960872 8.23908 0.899955 8.09433 0.861455 7.9485C0.823122 7.80267 0.803955 7.653 0.803955 7.4995C0.803955 7.346 0.823122 7.1965 0.861455 7.051C0.899955 6.9055 0.960872 6.76092 1.0442 6.61725C2.0852 4.78525 3.47846 3.30775 5.22396 2.18475C6.96946 1.06158 8.89479 0.5 11 0.5C13.1051 0.5 15.0305 1.06158 16.776 2.18475C18.5215 3.30775 19.9147 4.78525 20.9557 6.61725C21.039 6.76092 21.1 6.90567 21.1385 7.0515C21.1768 7.19733 21.196 7.347 21.196 7.5005C21.196 7.654 21.1768 7.8035 21.1385 7.949C21.1 8.0945 21.039 8.23908 20.9557 8.38275C19.9147 10.2148 18.5215 11.6922 16.776 12.8152C15.0305 13.9384 13.1051 14.5 11 14.5Z" fill="#c5c5c5"/>
</svg>
