<svg width="14" height="14" viewBox="0 0 14 14" fill="none" xmlns="http://www.w3.org/2000/svg">
<path d="M5.89379 2.33325H1.45689C0.962703 2.33325 0.672695 2.89049 0.956223 3.2954C0.959859 3.30084 0.861941 3.16737 4.51157 8.1354C4.67347 8.3702 4.62502 8.11903 4.62502 13.3577C4.62502 13.8839 5.22639 14.1878 5.65155 13.8715C7.2248 12.6856 7.60707 12.552 7.60707 11.9313C7.60707 8.26977 7.56001 8.36815 7.72052 8.1354L8.48207 7.09845C6.56577 6.40129 5.41719 4.37479 5.89379 2.33325Z" fill="black"/>
<path d="M7.70948 0.824855C5.65662 2.66536 6.65169 5.94771 9.23969 6.45903C11.3036 6.89511 13.1551 5.25955 13.1551 3.26132C13.1551 0.456015 9.80923 -1.036 7.70948 0.824855ZM10.9505 3.74528C11.2107 4.00411 11.0247 4.44735 10.6606 4.44735C10.4415 4.44735 10.3865 4.34372 9.88232 3.84147C9.38839 4.33322 9.32807 4.44735 9.10379 4.44735C8.73878 4.44735 8.5552 4.00264 8.81387 3.74528L9.29974 3.26132L8.81387 2.77736C8.42813 2.39359 9.00916 1.81153 9.39399 2.19502L9.88232 2.68117L10.3704 2.19502C10.7552 1.81153 11.3365 2.39337 10.9505 2.77736L10.4646 3.26132L10.9505 3.74528Z" fill="black"/>
</svg>
