<svg width="14" height="13" viewBox="0 0 14 13" fill="none" xmlns="http://www.w3.org/2000/svg">
<path d="M12.4166 10.2917C12.4166 10.4353 12.3595 10.5731 12.2579 10.6747C12.1564 10.7763 12.0186 10.8333 11.8749 10.8333H6.90025C6.78994 11.15 6.58384 11.4244 6.31052 11.6186C6.0372 11.8128 5.71021 11.9172 5.37492 11.9172C5.03963 11.9172 4.71264 11.8128 4.43932 11.6186C4.166 11.4244 3.95989 11.15 3.84959 10.8333H2.12492C1.98126 10.8333 1.84348 10.7763 1.7419 10.6747C1.64032 10.5731 1.58325 10.4353 1.58325 10.2917C1.58325 10.148 1.64032 10.0102 1.7419 9.90865C1.84348 9.80707 1.98126 9.75 2.12492 9.75H3.84959C3.95989 9.43338 4.166 9.15892 4.43932 8.96471C4.71264 8.7705 5.03963 8.66616 5.37492 8.66616C5.71021 8.66616 6.0372 8.7705 6.31052 8.96471C6.58384 9.15892 6.78994 9.43338 6.90025 9.75H11.8749C12.0186 9.75 12.1564 9.80707 12.2579 9.90865C12.3595 10.0102 12.4166 10.148 12.4166 10.2917ZM11.8749 5.95834H10.6919C10.5816 5.64171 10.3755 5.36726 10.1022 5.17304C9.82886 4.97883 9.50188 4.87449 9.16659 4.87449C8.83129 4.87449 8.50431 4.97883 8.23099 5.17304C7.95767 5.36726 7.75156 5.64171 7.64125 5.95834H2.12492C1.98126 5.95834 1.84348 6.01541 1.7419 6.11699C1.64032 6.21857 1.58325 6.35634 1.58325 6.5C1.58325 6.64366 1.64032 6.78144 1.7419 6.88302C1.84348 6.9846 1.98126 7.04167 2.12492 7.04167H7.64125C7.75156 7.3583 7.95767 7.63275 8.23099 7.82696C8.50431 8.02117 8.83129 8.12552 9.16659 8.12552C9.50188 8.12552 9.82886 8.02117 10.1022 7.82696C10.3755 7.63275 10.5816 7.3583 10.6919 7.04167H11.8749C12.0186 7.04167 12.1564 6.9846 12.2579 6.88302C12.3595 6.78144 12.4166 6.64366 12.4166 6.5C12.4166 6.35634 12.3595 6.21857 12.2579 6.11699C12.1564 6.01541 12.0186 5.95834 11.8749 5.95834ZM2.12492 3.25H4.93292C5.04323 3.56663 5.24934 3.84109 5.52266 4.0353C5.79598 4.22951 6.12296 4.33385 6.45825 4.33385C6.79355 4.33385 7.12053 4.22951 7.39385 4.0353C7.66717 3.84109 7.87328 3.56663 7.98359 3.25H11.8749C12.0186 3.25 12.1564 3.19294 12.2579 3.09135C12.3595 2.98977 12.4166 2.852 12.4166 2.70834C12.4166 2.56468 12.3595 2.4269 12.2579 2.32532C12.1564 2.22374 12.0186 2.16667 11.8749 2.16667H7.98359C7.87328 1.85004 7.66717 1.57559 7.39385 1.38138C7.12053 1.18717 6.79355 1.08282 6.45825 1.08282C6.12296 1.08282 5.79598 1.18717 5.52266 1.38138C5.24934 1.57559 5.04323 1.85004 4.93292 2.16667H2.12492C1.98126 2.16667 1.84348 2.22374 1.7419 2.32532C1.64032 2.4269 1.58325 2.56468 1.58325 2.70834C1.58325 2.852 1.64032 2.98977 1.7419 3.09135C1.84348 3.19294 1.98126 3.25 2.12492 3.25Z" fill="black"/>
</svg>
