<svg width="18" height="17" viewBox="0 0 18 17" fill="none" xmlns="http://www.w3.org/2000/svg">
<path d="M8.99998 16.9985C8.74369 16.9985 8.49669 16.9057 8.30414 16.737C7.57697 16.1012 6.87592 15.5037 6.25738 14.9766L6.25421 14.9739C4.44079 13.4285 2.87483 12.0939 1.78527 10.7793C0.567315 9.30965 0 7.91613 0 6.39383C0 4.91481 0.507163 3.55029 1.42794 2.55151C2.35972 1.54091 3.63824 0.984314 5.02842 0.984314C6.06747 0.984314 7.019 1.31281 7.8566 1.9606C8.27928 2.28755 8.66241 2.68774 8.99998 3.1545C9.33766 2.68774 9.72069 2.28755 10.1435 1.9606C10.9811 1.31281 11.9326 0.984314 12.9717 0.984314C14.3617 0.984314 15.6404 1.54091 16.5722 2.55151C17.4929 3.55029 18 4.91481 18 6.39383C18 7.91609 17.4328 9.30961 16.2148 10.7791C15.1252 12.0939 13.5594 13.4284 11.7463 14.9736C11.1267 15.5015 10.4245 16.1 9.69569 16.7373C9.50308 16.9058 9.25587 16.9986 8.99998 16.9985ZM5.02842 2.03872C3.93626 2.03872 2.93294 2.47462 2.20303 3.26616C1.46229 4.06969 1.05426 5.18042 1.05426 6.39383C1.05426 7.67415 1.5301 8.81918 2.59702 10.1065C3.62822 11.3509 5.16205 12.658 6.938 14.1715L6.94127 14.1742C7.56213 14.7033 8.26596 15.3032 8.99847 15.9437C9.73538 15.3019 10.4403 14.7011 11.0624 14.1712C12.8382 12.6577 14.3719 11.3509 15.4031 10.1065C16.4699 8.81918 16.9457 7.67415 16.9457 6.39383C16.9457 5.18038 16.5377 4.06966 15.7969 3.26616C15.0672 2.47462 14.0637 2.03872 12.9717 2.03872C12.1716 2.03872 11.437 2.29307 10.7884 2.79458C10.2104 3.24173 9.80777 3.80697 9.57166 4.20248C9.4503 4.40585 9.23662 4.52725 8.99998 4.52725C8.76335 4.52725 8.54967 4.40585 8.42827 4.20248C8.19238 3.80697 7.7897 3.24173 7.21152 2.79458C6.56296 2.29307 5.82837 2.03872 5.02842 2.03872Z" fill="#C5C5C5"/>
</svg>
