<svg width="24" height="24" viewBox="0 0 24 24" fill="none" xmlns="http://www.w3.org/2000/svg">
<path d="M12 22.6648C11.6583 22.6648 11.3289 22.541 11.0722 22.3161C10.1026 21.4683 9.16789 20.6716 8.34317 19.9689L8.33895 19.9652C5.92105 17.9048 3.8331 16.1253 2.38035 14.3725C0.75642 12.4129 0 10.5549 0 8.52519C0 6.55316 0.676217 4.73381 1.90392 3.40209C3.14629 2.05462 4.85099 1.3125 6.70456 1.3125C8.08995 1.3125 9.35867 1.7505 10.4755 2.61422C11.039 3.05015 11.5499 3.58373 12 4.20609C12.4502 3.58373 12.9609 3.05015 13.5247 2.61422C14.6415 1.7505 15.9102 1.3125 17.2956 1.3125C19.149 1.3125 20.8538 2.05462 22.0962 3.40209C23.3239 4.73381 24 6.55316 24 8.52519C24 10.5549 23.2437 12.4129 21.6198 14.3723C20.167 16.1253 18.0792 17.9046 15.6617 19.9649C14.8355 20.6687 13.8993 21.4667 12.9276 22.3165C12.6708 22.5411 12.3412 22.6649 12 22.6648ZM6.70456 2.71837C5.24835 2.71837 3.91059 3.29957 2.93737 4.35496C1.94971 5.42634 1.40568 6.9073 1.40568 8.52519C1.40568 10.2323 2.04014 11.759 3.4627 13.4755C4.83763 15.1346 6.88274 16.8774 9.25067 18.8954L9.25503 18.899C10.0828 19.6045 11.0213 20.4043 11.998 21.2583C12.9805 20.4027 13.9204 19.6016 14.7498 18.895C17.1176 16.877 19.1625 15.1346 20.5374 13.4755C21.9598 11.759 22.5943 10.2323 22.5943 8.52519C22.5943 6.90725 22.0502 5.42629 21.0626 4.35496C20.0896 3.29957 18.7516 2.71837 17.2956 2.71837C16.2288 2.71837 15.2493 3.05751 14.3845 3.72618C13.6139 4.32238 13.077 5.07604 12.7622 5.60338C12.6004 5.87455 12.3155 6.03641 12 6.03641C11.6845 6.03641 11.3996 5.87455 11.2377 5.60338C10.9232 5.07604 10.3863 4.32238 9.61536 3.72618C8.75061 3.05751 7.77116 2.71837 6.70456 2.71837Z" fill="#555555"/>
</svg>
