<svg width="88" height="89" viewBox="0 0 88 89" fill="none" xmlns="http://www.w3.org/2000/svg">
<path d="M87.0791 43.5396C87.0791 67.5858 67.5858 87.0791 43.5396 87.0791C19.4933 87.0791 0 67.5858 0 43.5396C0 19.4933 19.4933 0 43.5396 0C67.5858 0 87.0791 19.4933 87.0791 43.5396ZM7.83712 43.5396C7.83712 63.2575 23.8217 79.242 43.5396 79.242C63.2575 79.242 79.242 63.2575 79.242 43.5396C79.242 23.8217 63.2575 7.83712 43.5396 7.83712C23.8217 7.83712 7.83712 23.8217 7.83712 43.5396Z" fill="#EDEDED"/>
<path d="M68.2889 74.4798C69.6407 76.1698 72.1209 76.4559 73.6826 74.9576C79.2389 69.6269 83.3001 62.8995 85.4189 55.4483C87.8961 46.7367 87.5949 37.4693 84.5573 28.9368C81.5197 20.4044 75.8968 13.0316 68.4717 7.84528C62.121 3.40933 54.7222 0.761766 47.0473 0.141491C44.8902 -0.0328452 43.1488 1.75623 43.169 3.92029C43.1893 6.08436 44.9651 7.79998 47.1183 8.01691C53.1602 8.62558 58.9703 10.7683 63.9839 14.2703C70.0725 18.5231 74.6833 24.5687 77.1741 31.5653C79.665 38.5619 79.9119 46.1612 77.8806 53.3047C76.2079 59.1871 73.0589 64.5193 68.761 68.8091C67.2292 70.3379 66.937 72.7898 68.2889 74.4798Z" fill="#D31217"/>
<path d="M36.5726 49.8386H32.2484V56.5323H29.0496V49.8386H15.0895V47.0742L28.8324 27.5064H32.2484V46.8768H36.5726V49.8386ZM29.0496 46.8768V37.4384C29.0496 36.7144 29.0562 36.0628 29.0693 35.4836C29.0825 34.8912 29.1023 34.345 29.1286 33.8447C29.1549 33.3314 29.1747 32.8443 29.1878 32.3836C29.2141 31.9228 29.2339 31.4687 29.2471 31.0211H29.0891C28.839 31.5477 28.5494 32.1071 28.2203 32.6995C27.9044 33.2787 27.5818 33.7987 27.2528 34.2594L18.3475 46.8768H29.0496ZM58.4309 42.0589C58.4309 44.402 58.2532 46.495 57.8978 48.338C57.5424 50.1809 56.9829 51.7408 56.2194 53.0176C55.456 54.2945 54.4687 55.2686 53.2576 55.94C52.0466 56.5982 50.592 56.9273 48.8939 56.9273C46.7482 56.9273 44.9711 56.3415 43.5626 55.1699C42.1672 53.9983 41.1207 52.3068 40.423 50.0953C39.7385 47.8706 39.3963 45.1918 39.3963 42.0589C39.3963 38.9786 39.7056 36.3327 40.3243 34.1212C40.9562 31.8965 41.9698 30.1918 43.3651 29.0071C44.7605 27.8092 46.6034 27.2102 48.8939 27.2102C51.0659 27.2102 52.8561 27.8026 54.2646 28.9873C55.6732 30.1589 56.7197 31.857 57.4042 34.0817C58.0887 36.2932 58.4309 38.9522 58.4309 42.0589ZM42.6938 42.0589C42.6938 44.7443 42.8978 46.9821 43.3059 48.7724C43.7139 50.5626 44.3721 51.9053 45.2804 52.8004C46.2019 53.6824 47.4064 54.1234 48.8939 54.1234C50.3814 54.1234 51.5792 53.6824 52.4875 52.8004C53.409 51.9185 54.0738 50.5824 54.4818 48.7921C54.9031 47.0018 55.1137 44.7574 55.1137 42.0589C55.1137 39.413 54.9097 37.2015 54.5016 35.4244C54.0935 33.6341 53.4353 32.2914 52.527 31.3963C51.6187 30.488 50.4077 30.0338 48.8939 30.0338C47.38 30.0338 46.169 30.488 45.2607 31.3963C44.3524 32.2914 43.6942 33.6341 43.2861 35.4244C42.8912 37.2015 42.6938 39.413 42.6938 42.0589Z" fill="#000101"/>
<path d="M64.2902 27.1235C65.0595 27.1235 65.6417 27.4313 66.0366 28.0467C66.4366 28.657 66.6366 29.5212 66.6366 30.6393C66.6366 31.7573 66.4443 32.6292 66.0596 33.2549C65.675 33.8755 65.0852 34.1858 64.2902 34.1858C63.5517 34.1858 62.985 33.8755 62.5901 33.2549C62.2003 32.6292 62.0054 31.7573 62.0054 30.6393C62.0054 29.5212 62.1926 28.657 62.567 28.0467C62.9414 27.4313 63.5158 27.1235 64.2902 27.1235ZM64.2902 28.039C63.8748 28.039 63.5697 28.257 63.3748 28.6929C63.1799 29.1237 63.0824 29.7725 63.0824 30.6393C63.0824 31.506 63.1799 32.1599 63.3748 32.601C63.5697 33.0421 63.8748 33.2626 64.2902 33.2626C64.721 33.2626 65.0416 33.0421 65.2519 32.601C65.4621 32.1599 65.5673 31.506 65.5673 30.6393C65.5673 29.7776 65.4621 29.1289 65.2519 28.6929C65.0467 28.257 64.7262 28.039 64.2902 28.039ZM71.414 27.2851L65.1749 38.5323H64.0518L70.2908 27.2851H71.414ZM71.114 31.6317C71.8782 31.6317 72.4603 31.9394 72.8603 32.5548C73.2603 33.1652 73.4604 34.0293 73.4604 35.1474C73.4604 36.2603 73.268 37.1296 72.8834 37.7553C72.4987 38.3759 71.9089 38.6862 71.114 38.6862C70.3703 38.6862 69.8036 38.3759 69.4138 37.7553C69.024 37.1296 68.8291 36.2603 68.8291 35.1474C68.8291 34.0293 69.0138 33.1652 69.383 32.5548C69.7574 31.9394 70.3344 31.6317 71.114 31.6317ZM71.114 32.5548C70.6986 32.5548 70.3934 32.7702 70.1985 33.2011C70.0036 33.6319 69.9062 34.2806 69.9062 35.1474C69.9062 36.0142 70.0036 36.6681 70.1985 37.1091C70.3934 37.5451 70.6986 37.763 71.114 37.763C71.5448 37.763 71.8653 37.5476 72.0756 37.1168C72.2859 36.6809 72.391 36.0244 72.391 35.1474C72.391 34.2858 72.2859 33.6396 72.0756 33.2087C71.8705 32.7728 71.5499 32.5548 71.114 32.5548Z" fill="#000101"/>
</svg>
