<svg width="15" height="17" viewBox="0 0 15 17" fill="none" xmlns="http://www.w3.org/2000/svg">
<path d="M13.1252 11.7791C12.5439 12.8574 11.6383 13.7257 10.5365 14.261C9.43463 14.7964 8.19237 14.9718 6.9854 14.7624C5.77843 14.553 4.66784 13.9694 3.81075 13.0941C2.95366 12.2189 2.39344 11.0964 2.20934 9.88527C2.02524 8.67418 2.22659 7.43587 2.78489 6.34549C3.34319 5.25511 4.2302 4.36787 5.32042 3.80927C6.41065 3.25067 7.64891 3.04899 8.86005 3.23276C10.0712 3.41652 11.1939 3.97644 12.0693 4.83329H9.66685C9.44584 4.83329 9.23387 4.92109 9.07759 5.07737C8.92131 5.23365 8.83352 5.44561 8.83352 5.66663C8.83352 5.88764 8.92131 6.0996 9.07759 6.25588C9.23387 6.41216 9.44584 6.49996 9.66685 6.49996H13.8335C13.8452 6.49996 13.8552 6.49413 13.8669 6.49329L13.8744 6.49163C14.0871 6.48221 14.2881 6.39128 14.4357 6.23768C14.5832 6.08409 14.666 5.87961 14.6669 5.66663V1.49996C14.6669 1.27895 14.5791 1.06698 14.4228 0.910704C14.2665 0.754423 14.0545 0.666626 13.8335 0.666626C13.6125 0.666626 13.4005 0.754423 13.2443 0.910704C13.088 1.06698 13.0002 1.27895 13.0002 1.49996V3.43829C11.8415 2.40032 10.3882 1.74911 8.84229 1.57519C7.29641 1.40127 5.73474 1.71328 4.37436 2.46784C3.01398 3.2224 1.92247 4.38204 1.25154 5.78555C0.580616 7.18907 0.36361 8.76674 0.630685 10.2993C0.897761 11.8318 1.63565 13.2431 2.74179 14.3369C3.84793 15.4307 5.26736 16.1528 6.80279 16.4027C8.33822 16.6526 9.91337 16.418 11.3093 15.7314C12.7052 15.0448 13.8526 13.9404 14.5919 12.5716C14.6969 12.3771 14.7205 12.1489 14.6573 11.937C14.594 11.7252 14.4493 11.5471 14.2548 11.442C14.0603 11.337 13.832 11.3134 13.6202 11.3766C13.4083 11.4399 13.2303 11.5846 13.1252 11.7791Z" fill="#000101"/>
</svg>
